<?xml version="1.0" encoding="utf-8"?>
<!-- Generator: Adobe Illustrator 25.2.0, SVG Export Plug-In . SVG Version: 6.00 Build 0)  -->
<svg version="1.1" id="Layer_1" xmlns="http://www.w3.org/2000/svg" xmlns:xlink="http://www.w3.org/1999/xlink" x="0px" y="0px"
	 viewBox="0 0 442.1 112" style="enable-background:new 0 0 442.1 112;" xml:space="preserve">
<style type="text/css">
	.st0{fill:#31A165;}
	.st1{opacity:0.15;fill:#FFFFFF;enable-background:new    ;}
	.st2{fill:#45B103;}
	.st3{opacity:0.4;fill:#FFFFFF;enable-background:new    ;}
	.st4{opacity:0.65;fill:#FFFFFF;enable-background:new    ;}
	.st5{opacity:0.15;fill:#31A165;enable-background:new    ;}
	.st6{opacity:0.15;fill:#45B103;enable-background:new    ;}
	.st7{opacity:0.4;fill:#45B103;enable-background:new    ;}
	.st8{font-family:'ArialMT';}
	.st9{font-size:22px;}
</style>
<g id="图层_2">
	<path class="st0" d="M133.1,32.7C133.1,19,144.2,8,157.8,8c0,0,0,0,0,0c8.7-0.1,16.8,4.5,21,12.1c1,1.6,0.6,3.8-1,4.8
		c-1.6,1-3.8,0.6-4.8-1.1l0,0c-3.1-5.4-8.9-8.7-15.1-8.8c-9.7,0-17.5,7.9-17.6,17.5c0.2,9.7,8.2,17.4,17.8,17.3
		c5.8-0.1,11.2-3.1,14.4-7.9c0.8-1.5,2.6-2,4.1-1.2c0.2,0.1,0.4,0.2,0.6,0.4c1.6,0.7,2.3,2.5,1.6,4.1c-0.1,0.2-0.2,0.4-0.3,0.5
		c-4.4,7.1-12.2,11.4-20.5,11.4C144.4,57.1,133.1,46.2,133.1,32.7z"/>
	<path class="st0" d="M184.6,39.5c0-9.7,7.9-17.6,17.6-17.6s17.6,7.9,17.6,17.6s-7.9,17.6-17.6,17.6c0,0,0,0,0,0
		C192.4,57.1,184.6,49.2,184.6,39.5z M191.5,39.5c0,5.9,4.8,10.7,10.7,10.7s10.7-4.8,10.7-10.7s-4.8-10.7-10.7-10.7
		C196.3,28.9,191.5,33.6,191.5,39.5z"/>
	<path class="st0" d="M259.1,39.5v14.1c0.1,1.9-1.4,3.6-3.3,3.7s-3.6-1.4-3.7-3.3c0-0.1,0-0.2,0-0.4V39.5c0.2-5.9-4.4-10.8-10.3-11
		c-5.9-0.2-10.8,4.4-11,10.3c0,0.2,0,0.4,0,0.7v14.1c0.1,1.9-1.4,3.6-3.3,3.7s-3.6-1.4-3.7-3.3c0-0.1,0-0.2,0-0.4V39.5
		c0.2-9.7,8.3-17.4,18-17.2C251.3,22.5,258.9,30.1,259.1,39.5L259.1,39.5z"/>
	<path class="st0" d="M298.5,39.5v14.1c0,1.9-1.6,3.5-3.5,3.5s-3.5-1.6-3.5-3.5V39.5c0-5.9-4.8-10.7-10.7-10.7s-10.7,4.8-10.7,10.7
		v14.1c0,1.9-1.6,3.5-3.5,3.5s-3.5-1.6-3.5-3.5V39.5c0-9.7,7.9-17.6,17.6-17.6S298.5,29.8,298.5,39.5z"/>
	<path class="st0" d="M337.8,39.5c0,1.9-1.6,3.5-3.5,3.4c0,0,0,0,0,0h-24.2c1.5,4.3,5.5,7.2,10.1,7.2c2.8,0,5.5-0.8,7.9-2.3
		c1.6-1,3.8-0.1,4.6,1.6s-0.1,3.6-1.7,4.6c-3.2,2.2-7,3.2-10.8,3c-9.7-0.2-17.4-8.3-17.2-18c0.2-9.4,7.8-17,17.2-17.2
		C328.7,21.9,337.8,28.1,337.8,39.5z M310.1,36h20.3c-1.5-4.9-6-7.2-10.2-7.2C315.7,28.8,311.6,31.7,310.1,36L310.1,36z"/>
	<path class="st0" d="M342,39.6c0-9.7,7.8-17.6,17.5-17.6c0,0,0,0,0,0c6.3,0,12.1,3.3,15.3,8.8c0.9,1.7,0.4,3.8-1.3,4.8
		c-1.7,0.9-3.8,0.4-4.8-1.3c-2.9-5.1-9.5-6.9-14.6-4c-5.1,2.9-6.9,9.5-4,14.6c2.9,5.1,9.5,6.9,14.6,4c1.5-0.9,2.8-2.1,3.7-3.5
		c1.1-1.6,3.2-2,4.8-1c1.6,1.1,2.1,3.2,1,4.8c-5.2,8.2-16.1,10.5-24.3,5.3C345,51.2,342,45.6,342,39.6L342,39.6z"/>
	<path class="st0" d="M376.4,8h28.2c1.9,0,3.5,1.6,3.5,3.5s-1.6,3.5-3.5,3.5H394v38.8c0.1,1.9-1.4,3.6-3.3,3.7s-3.6-1.4-3.7-3.3
		c0-0.1,0-0.2,0-0.4V14.9h-10.6c-1.9,0-3.5-1.6-3.5-3.5S374.5,8,376.4,8L376.4,8z"/>
	<path class="st0" d="M437.4,57c-2,0.4-3.9-0.7-4.6-2.5l-2.5-7.1h-17.1l-2.9,7.1c-0.3,1.6-1.8,2.6-3.4,2.5H406
		c-1.9-0.7-2.9-2.7-2.5-4.6l15-41.8c0.5-1.5,1.9-2.5,3.4-2.5c1.5,0,2.9,1,3.3,2.5l14.2,41.8c0.7,1.8-0.1,3.8-1.9,4.5
		C437.5,57,437.5,57,437.4,57z M428.1,40.3l-6.2-18l-6.3,18H428.1z"/>
	<path class="st1" d="M0.2,94.3v-0.4c0-0.8,0-1.5,0-2.3l0,0c0-1.2,0-2.5,0-3.7v-3.4c0-0.7,0-1.3,0-2v13.2h0.1
		C0.2,95.3,0.2,94.8,0.2,94.3z"/>
	<path class="st2" d="M30.3,74.8c5.6-5.2,14.3-5.2,19.9,0v-8.7c0-4.9-3.8-8.9-8.7-9.1h-0.4H29.8v-7.1l0,0c4.2-3.5,4.7-9.8,1.2-14
		c-3.5-4.2-9.8-4.7-14-1.2c-4.2,3.5-4.7,9.8-1.2,14c0.4,0.4,0.8,0.8,1.2,1.2l0,0V57h-17c0,0.6,0,1.2,0,1.8v0.9c0,0.5,0,1,0,1.5v0.4
		c0,0.6,0,1.3,0,2V67c0,1.2,0,2.5,0,3.7l0,0c0,0.8,0,1.5,0,2.3v0.4c0,0.5,0,1,0,1.4v1c0,1.4,0,2.7,0,4c0,0.4,0,0.8,0,1.2s0,0.7,0,1
		c0.1,15.2,12.5,27.5,27.7,27.5c7.8,0,14.4,0,22.2,0V96.3c-5.9,5.5-15.1,5.2-20.6-0.8c-0.8-0.9-1.5-1.8-2.1-2.9
		c-1-1.7-1.5-3.5-1.8-5.5C25.1,82.5,26.9,77.9,30.3,74.8z"/>
	<path class="st1" d="M0.1,63.6c0,1.1,0,2.3,0,3.4v3.7v0c0,0.8,0,1.5,0,2.3v0.4c0,0.5,0,1,0,1.4h30.2c5.6-5.2,14.3-5.2,19.9,0v-8.8
		c0-4.9-3.8-8.9-8.7-9.1H0.1v4.6C0.1,62.2,0.1,62.9,0.1,63.6z"/>
	<path class="st3" d="M30.3,74.8H0.2v0.5c0,0.2,0,0.3,0,0.5c0,1.4,0,2.7,0,4c0,0.4,0,0.8,0,1.2v1c0,3.7,0.8,7.3,2.2,10.7h25
		c-0.9-1.7-1.6-3.5-1.8-5.5C25.1,82.6,26.9,78,30.3,74.8z"/>
	<path class="st4" d="M38.1,100.1c-4.5-0.7-8.4-3.4-10.6-7.4h-25c4.4,10.2,14.4,16.8,25.5,16.9c7.8,0,14.5,0,22.3,0V96.3
		C47,99.4,42.5,100.7,38.1,100.1z"/>
	<path class="st0" d="M48.6-0.4H27.7H27H48.6L48.6-0.4z"/>
	<path class="st5" d="M50.2-0.4v17.6l0,0V-0.4L50.2-0.4z"/>
	<path class="st0" d="M64.9,13.7c-2.9,0-5.7,1.3-7.6,3.5h-7V-0.4H27C12-0.1,0,12.2,0,27.3c0,0,0,11,0.1,24.9h12.3
		c-5.5-5.9-5.1-15.1,0.8-20.6c0.9-0.8,1.9-1.6,3-2.2c1.6-0.9,3.5-1.5,5.3-1.7c8-0.9,15.3,4.8,16.2,12.8c0.5,4.2-0.9,8.5-3.8,11.6
		h6.9c5.2,0,9.4-4.2,9.4-9.4l0,0V40l0,0V30h7c3.5,4.2,9.8,4.7,14,1.2c4.2-3.5,4.7-9.8,1.2-14C70.5,15,67.7,13.7,64.9,13.7L64.9,13.7
		z"/>
	<path class="st6" d="M106.8,35.8v0.4c0,0.8,0,1.5,0,2.3l0,0c0,1.2,0,2.5,0,3.7s0,2.3,0,3.4c0,0.7,0,1.3,0,2V48c0,0.5,0,1,0,1.5v0.9
		c0,0.6,0,1.2,0,1.8h0.1V34.3h-0.2C106.8,34.8,106.8,35.3,106.8,35.8z"/>
	<path class="st2" d="M54.9,34.3L54.9,34.3L54.9,34.3L54.9,34.3z"/>
	<path class="st7" d="M54.9,34.3L54.9,34.3L54.9,34.3L54.9,34.3z"/>
	<path class="st2" d="M89.9,53.7v-1.5h17c0-0.6,0-1.2,0-1.8v-0.9c0-0.5,0-1,0-1.5v-0.4c0-0.7,0-1.3,0-2c0-1.1,0-2.3,0-3.4
		s0-2.5,0-3.7l0,0c0-0.8,0-1.5,0-2.3v-0.4c0-0.5,0-0.9,0-1.4v-1c0-1.4,0-2.7,0-4c0-0.4,0-0.8,0-1.2s0-0.6,0-1
		C106.8,11.9,94.4-0.4,79.2-0.4H55.1l0,0v13.3l0,0c5.9-5.4,15.2-5,20.6,0.9c0.8,0.8,1.4,1.7,2,2.7c0.9,1.7,1.5,3.5,1.8,5.4
		c0.9,8-4.8,15.3-12.8,16.2c-4.2,0.5-8.5-0.9-11.6-3.8l0,0V43c0,5,4.1,9.1,9.1,9.1h0h13.1v7c-4.2,3.5-4.7,9.8-1.2,14
		c3.5,4.2,9.8,4.7,14,1.2c4.2-3.5,4.7-9.8,1.2-14c-0.4-0.4-0.8-0.8-1.2-1.2l0,0V53.7L89.9,53.7z"/>
	<path class="st0" d="M104.3,97l-0.6-2c2.2-4,3.3-8.5,3.3-13.1c0,0,0-11-0.1-24.9H94.6c5.5,5.9,5.2,15.1-0.7,20.6
		c-0.9,0.8-1.9,1.5-3,2.1c-1.7,0.9-3.5,1.5-5.4,1.7c-8,0.9-15.3-4.8-16.2-12.8c-0.5-4.2,0.9-8.4,3.7-11.5l0.1-0.1h-8.7
		c-4.5,0-8.3,3.1-9.2,7.5v14.7h-7.2c-3.5-4.2-9.8-4.7-14-1.2c-1.9,1.6-3.2,3.9-3.5,6.4v2.3c0.6,5.4,5.5,9.4,10.9,8.8
		c2.2-0.2,4.3-1.2,5.9-2.8c0.2-0.2,0.5-0.5,0.7-0.7h7.2v17.6h24.1c4,0,8-0.9,11.6-2.6c0.9-0.4,1.8-0.9,2.7-1.4l1.8,0.7l7.3,3
		c1.6,0.7,3.4-0.1,4.1-1.7c0.3-0.7,0.3-1.4,0.1-2.1L104.3,97z"/>
	<text transform="matrix(1 0 0 1 138.4801 86.3508)" class="st0 st8 st9">US-China student community </text>
	<text transform="matrix(1 0 0 1 138.4801 107.3508)" class="st0 st8 st9">with weekly Zoom engagement</text>
</g>
</svg>
