<?xml version="1.0" encoding="utf-8"?>
<!-- Generator: Adobe Illustrator 25.2.0, SVG Export Plug-In . SVG Version: 6.00 Build 0)  -->
<svg version="1.1" id="Layer_1" xmlns="http://www.w3.org/2000/svg" xmlns:xlink="http://www.w3.org/1999/xlink" x="0px" y="0px"
	 viewBox="0 0 200 200" style="enable-background:new 0 0 200 200;" xml:space="preserve">
<style type="text/css">
	.st0{opacity:0.15;fill:#FFFFFF;enable-background:new    ;}
	.st1{fill:#45B103;}
	.st2{opacity:0.4;fill:#FFFFFF;enable-background:new    ;}
	.st3{opacity:0.65;fill:#FFFFFF;enable-background:new    ;}
	.st4{fill:#31A165;}
	.st5{opacity:0.15;fill:#31A165;enable-background:new    ;}
	.st6{opacity:0.15;fill:#45B103;enable-background:new    ;}
	.st7{opacity:0.4;fill:#45B103;enable-background:new    ;}
</style>
<g id="图层_2">
	<path class="st0" d="M4.3,171v-0.7c0-1.4,0-2.7,0-4.1v-0.1c0-2.2,0-4.4,0-6.6s0-4.1,0-6.1c0-1.2,0-2.4,0-3.5v23.7h0.2
		C4.4,172.7,4.4,171.8,4.3,171z"/>
	<path class="st1" d="M58.3,136.1c10-9.3,25.5-9.3,35.5,0v-15.6c0-8.7-6.9-15.8-15.5-16.2c-0.3,0-0.5,0-0.8,0H57.3V91.6l0,0
		c7.5-6.3,8.5-17.5,2.2-25c-6.3-7.5-17.5-8.5-25-2.2c-7.5,6.3-8.5,17.5-2.2,25c0.7,0.8,1.4,1.5,2.2,2.2l0,0v12.6H4.2
		c0,1.1,0,2.2,0,3.3c0,0.5,0,1,0,1.6c0,0.9,0,1.8,0,2.7v0.7c0,1.2,0,2.4,0,3.5c0,2,0,4.1,0,6.1s0,4.4,0,6.6v0.1c0,1.4,0,2.7,0,4.1
		c0,0.2,0,0.5,0,0.7c0,0.9,0,1.7,0,2.6v0.8c0,0.3,0,0.6,0,0.9c0,2.4,0,4.8,0.1,7.2c0,0.7,0,1.4,0,2.1s0,1.2,0,1.8
		c0.2,27.2,22.3,49.2,49.5,49.2c14,0,25.8,0,39.8,0.1v-23.8c-10.5,9.8-27,9.2-36.9-1.3c-1.4-1.6-2.7-3.3-3.7-5.1
		c-1.7-3-2.8-6.3-3.1-9.8C48.9,150,52.1,141.7,58.3,136.1z"/>
	<path class="st0" d="M4.2,116.1c0,2,0,4.1,0,6.1s0,4.4,0,6.6v0.1v4.1v0.7c0,0.9,0,1.7,0,2.6h53.9c10-9.3,25.5-9.3,35.5,0v-15.6
		c0-8.7-6.8-15.8-15.4-16.3h-74v7.5c0,0.2,0,0.5,0,0.7C4.2,113.7,4.2,114.9,4.2,116.1z"/>
	<path class="st2" d="M58.2,136.2H4.3v0.8c0,0.3,0,0.6,0,0.9c0,2.4,0,4.8,0.1,7.2c0,0.7,0,1.4,0,2.1s0,1.2,0,1.8
		c0.1,6.6,1.4,13,4,19.1h44.8c-1.7-3-2.8-6.3-3.2-9.8C49.1,150.1,52.1,141.9,58.2,136.2z"/>
	<path class="st3" d="M72.2,181.3c-8-1.2-15-6.1-19-13.2H8.4c7.8,18.3,25.7,30.1,45.6,30.2h39.8v-23.7C87.9,180,80,182.4,72.2,181.3
		z"/>
	<path class="st4" d="M90.8,1.7H53.6c-0.4,0-0.9,0-1.3,0H90.8z"/>
	<path class="st5" d="M93.8,1.7v31.5l0,0V1.7L93.8,1.7z"/>
	<path class="st4" d="M119.9,26.9c-5.2,0-10.2,2.3-13.6,6.3H93.8V1.7H52.3C25.4,2.3,4,24.3,4.1,51.2c0,0,0.1,19.6,0.2,44.5h22
		c-9.8-10.6-9.2-27.2,1.4-37c10.6-9.8,27.2-9.2,37,1.4c9.3,10,9.3,25.6,0,35.6h12.3c9.3,0,16.9-7.6,16.9-16.9c0,0,0,0,0,0v-5l0,0V56
		h12.6c6.3,7.5,17.5,8.5,25,2.2s8.5-17.5,2.2-25C130.2,29.2,125.2,26.8,119.9,26.9L119.9,26.9z"/>
	<path class="st6" d="M194.9,66.4c0,0.2,0,0.5,0,0.7v4.1v0.1c0,2.2,0,4.4,0,6.6s0,4.1,0,6.1c0,1.2,0,2.4,0,3.5v0.7
		c0,0.9,0,1.8,0,2.7c0,0.5,0,1,0,1.6c0,1.1,0,2.2,0,3.3h0.1V63.8h-0.3C194.9,64.7,194.9,65.5,194.9,66.4z"/>
	<path class="st1" d="M102.2,63.8L102.2,63.8L102.2,63.8L102.2,63.8L102.2,63.8z"/>
	<path class="st7" d="M102.2,63.8L102.2,63.8L102.2,63.8L102.2,63.8L102.2,63.8z"/>
	<path class="st1" d="M164.7,98.4v-2.6h30.4c0-1.1,0-2.2,0-3.3c0-0.5,0-1,0-1.6c0-0.9,0-1.8,0-2.7v-0.7c0-1.2,0-2.4,0-3.5
		c0-2,0-4.1,0-6.1s0-4.4,0-6.6v-0.1v-4.1c0-0.2,0-0.5,0-0.7c0-0.9,0-1.7,0-2.5V63c0-0.3,0-0.6,0-0.9c0-2.4,0-4.8-0.1-7.2
		c0-0.7,0-1.4,0-2.2s0-1.2,0-1.8c-0.2-27.2-22.3-49.2-49.5-49.2l-43.1-0.1l0,0v23.7l0,0c10.6-9.8,27.1-9.2,37,1.4
		c9.8,10.6,9.2,27.1-1.4,37c-10,9.3-25.5,9.3-35.5,0.1h-0.1v15.5c0,9,7.3,16.3,16.3,16.3h23.4v12.6c-7.5,6.3-8.5,17.5-2.2,25
		c6.3,7.5,17.5,8.5,25,2.2c7.5-6.3,8.5-17.5,2.2-25c-0.7-0.8-1.4-1.5-2.2-2.2l0,0v-10L164.7,98.4z"/>
	<rect x="119.1" y="104.2" class="st4" width="15.4" height="0"/>
	<path class="st4" d="M99.6,144h-9.9c-6.3-7.5-17.4-8.5-25-2.3c-3.5,2.9-5.7,7-6.3,11.6v4.1c1.1,9.7,9.8,16.7,19.6,15.6
		c3.9-0.4,7.6-2.2,10.4-5c0.4-0.4,0.8-0.8,1.2-1.3H104V144H99.6z"/>
	<path class="st4" d="M134.5,167.3v-27.7c-9.1-9.9-9.1-25.2,0-35.1v-0.2h-15.4c-8,0-14.9,5.6-16.5,13.4v80.6h31.9v-23.7"/>
	<path class="st4" d="M134.5,139.5V180l32,1.1v-36.1c-3,1.7-6.2,2.7-9.6,3.1C148.5,148.9,140.2,145.8,134.5,139.5z"/>
	<path class="st4" d="M134.5,174.6v23.7h11.1c7.2,0,14.3-1.6,20.8-4.6v-6L134.5,174.6z"/>
	<path class="st4" d="M134.5,104.4l0.2-0.2h-0.2V104.4z"/>
	<path class="st4" d="M166.5,193.8c2.2-1,4.3-2.2,6.3-3.5l-6.3-2.6V193.8z"/>
	<path class="st4" d="M165.1,176.8l23.5-3.3c4.3-7.5,6.6-16,6.6-24.7c0,0-0.1-19.6-0.2-44.5h-22c9.8,10.5,9.2,27.1-1.3,36.9
		c-1.6,1.5-3.4,2.8-5.3,3.8v22.4L165.1,176.8z"/>
	<path class="st4" d="M194.9,191.2l-4.5-15.4l-1.8-6.2h-70.2l56.1,23l13,5.3c2.8,1.2,6.1-0.2,7.3-3
		C195.2,193.7,195.3,192.4,194.9,191.2z"/>
</g>
</svg>
